# This file uses centimeters as units for non-parametric coordinates.

mtllib Book1.mtl
g default
v 94.357010 94.446671 -14.156075
v 129.259048 94.446671 -14.156075
v 94.357010 95.782257 -14.156075
v 129.259048 95.782257 -14.156075
v 94.357010 95.782257 -72.048462
v 129.259048 95.782257 -72.048462
v 94.357010 94.446671 -72.048462
v 129.259048 94.446671 -72.048462
v 94.357010 95.782257 -43.102268
v 94.357010 94.446671 -43.102268
v 129.259048 94.446671 -43.102268
v 129.259048 95.782257 -43.102268
v 94.357010 94.561195 -44.549583
v 129.259048 94.561195 -44.549583
v 94.357010 94.561195 -41.654957
v 129.259048 94.561195 -41.654957
v 94.357010 94.446671 -45.924522
v 129.259048 94.446671 -45.924522
v 94.357010 94.446671 -40.280006
v 129.259048 94.446671 -40.280006
v 94.357010 94.446671 -43.825924
v 129.259048 94.446671 -43.825924
v 94.357010 94.446671 -42.378609
v 129.259048 94.446671 -42.378609
v 94.357010 94.561195 -40.967484
v 129.259048 94.561195 -40.967484
v 94.357010 94.561195 -45.237045
v 129.259048 94.561195 -45.237045
v 127.559052 95.782257 -43.102268
v 96.056999 95.782257 -43.102268
v 96.056999 95.782257 -15.856072
v 127.559052 95.782257 -15.856072
v 127.559052 95.782257 -70.348465
v 96.056999 95.782257 -70.348465
v 127.559052 97.537628 -43.102268
v 96.056999 97.537628 -43.102268
v 96.056999 97.537628 -15.856072
v 127.559052 97.537628 -15.856072
v 127.559052 97.537628 -70.348465
v 96.056999 97.537628 -70.348465
v 96.056999 98.872803 -49.913818
v 127.559052 98.872803 -49.913818
v 96.056999 98.872803 -36.290718
v 127.559052 98.872803 -36.290718
v 96.056999 99.112450 -60.131142
v 127.559052 99.112450 -60.131142
v 96.056999 99.112450 -26.073395
v 127.559052 99.112450 -26.073395
v 96.056999 99.389732 -55.022480
v 127.559052 99.389732 -55.022480
v 96.056999 99.389732 -31.182058
v 127.559052 99.389732 -31.182058
vt 0.375000 0.000000
vt 0.625000 0.000000
vt 0.375000 0.250000
vt 0.625000 0.250000
vt 0.375000 0.500000
vt 0.625000 0.500000
vt 0.375000 0.750000
vt 0.625000 0.750000
vt 0.375000 1.000000
vt 0.625000 1.000000
vt 0.875000 0.000000
vt 0.875000 0.250000
vt 0.125000 0.000000
vt 0.125000 0.250000
vt 0.249827 0.247554
vt 0.375010 0.375007
vt 0.250000 0.000000
vt 0.375000 0.875000
vt 0.625000 0.875000
vt 0.750000 0.000000
vt 0.624992 0.375012
vt 0.750158 0.247554
vt 0.243750 0.000000
vt 0.375000 0.868750
vt 0.625000 0.868750
vt 0.756250 0.000000
vt 0.256250 0.000000
vt 0.375000 0.881250
vt 0.625000 0.881250
vt 0.743750 0.000000
vt 0.237813 0.000000
vt 0.375000 0.862813
vt 0.625000 0.862813
vt 0.762187 0.000000
vt 0.262187 0.000000
vt 0.375000 0.887188
vt 0.625000 0.887188
vt 0.737812 0.000000
vt 0.246875 0.000000
vt 0.375000 0.871875
vt 0.625000 0.871875
vt 0.753125 0.000000
vt 0.253125 0.000000
vt 0.375000 0.878125
vt 0.625000 0.878125
vt 0.746875 0.000000
vt 0.259219 0.000000
vt 0.375000 0.884219
vt 0.625000 0.884219
vt 0.740781 0.000000
vt 0.240781 0.000000
vt 0.375000 0.865781
vt 0.625000 0.865781
vt 0.759219 0.000000
vt 0.375010 0.375007
vt 0.375000 0.250000
vt 0.625000 0.250000
vt 0.624992 0.375012
vt 0.625000 0.500000
vt 0.375000 0.500000
vt 0.375010 0.375007
vt 0.375000 0.250000
vt 0.625000 0.250000
vt 0.624992 0.375012
vt 0.625000 0.500000
vt 0.375000 0.500000
vt 0.375007 0.406255
vt 0.624994 0.406259
vt 0.375007 0.343755
vt 0.624994 0.343759
vt 0.375004 0.453128
vt 0.624997 0.453130
vt 0.375004 0.296878
vt 0.624997 0.296880
vt 0.375006 0.429691
vt 0.624996 0.429694
vt 0.375006 0.320316
vt 0.624996 0.320319
vn 0.000000 0.000000 1.000000
vn 0.000000 0.000000 1.000000
vn 0.000000 0.000000 1.000000
vn 0.000000 0.000000 1.000000
vn 0.000000 0.000000 -1.000000
vn 0.000000 0.000000 -1.000000
vn 0.000000 0.000000 -1.000000
vn 0.000000 0.000000 -1.000000
vn 0.000000 -1.000000 0.000000
vn 0.000000 -0.999991 -0.004271
vn 0.000000 -0.999991 -0.004271
vn 0.000000 -1.000000 0.000000
vn 1.000000 0.000007 0.000000
vn 1.000000 0.000006 0.000000
vn 1.000000 0.000007 0.000000
vn 1.000000 0.000007 0.000000
vn -1.000000 -0.000000 0.000000
vn -1.000000 0.000000 0.000000
vn -1.000000 0.000000 0.000000
vn -1.000000 0.000000 0.000000
vn -1.000000 0.000000 0.000000
vn -1.000000 0.000000 0.000000
vn -1.000000 0.000000 0.000000
vn 0.000000 -0.999991 0.004271
vn 0.000000 -1.000000 0.000000
vn 0.000000 -1.000000 0.000000
vn 0.000000 -0.999991 0.004271
vn 1.000000 0.000007 0.000000
vn 1.000000 0.000007 0.000000
vn 1.000000 0.000007 0.000000
vn -1.000000 -0.000010 0.000000
vn -1.000000 0.000000 0.000000
vn 1.000000 0.000000 0.000000
vn 1.000000 0.000000 0.000000
vn 0.000000 -0.996884 -0.078881
vn 0.000000 -0.996884 -0.078881
vn 0.000000 -1.000000 0.000000
vn 0.000000 -1.000000 0.000000
vn -1.000000 0.000000 0.000000
vn 0.000000 -0.996884 0.078881
vn 0.000000 -0.996884 0.078881
vn 1.000000 0.000000 0.000000
vn 0.000000 1.000000 0.000000
vn 0.000000 1.000000 0.000000
vn 0.000000 0.988144 -0.153533
vn 0.000000 0.988144 -0.153533
vn -1.000000 0.000000 0.000000
vn -1.000000 -0.000004 0.000000
vn 0.000000 0.992777 -0.119974
vn 0.000000 0.992777 -0.119974
vn 0.000000 0.988329 -0.152334
vn 0.000000 0.988329 -0.152334
vn 1.000000 0.000000 0.000000
vn 1.000000 0.000000 0.000000
vn 0.000000 -0.996549 0.083005
vn 0.000000 -0.996549 0.083005
vn 0.000000 -0.996723 -0.080891
vn 0.000000 -0.996723 -0.080891
vn -1.000000 -0.000025 0.000000
vn -1.000000 -0.000008 0.000000
vn 0.000000 -0.996723 0.080891
vn 0.000000 -0.996723 0.080891
vn 0.000000 -0.996549 -0.083005
vn 0.000000 -0.996549 -0.083005
vn 1.000000 0.000000 0.000000
vn 1.000000 0.000000 0.000000
vn 0.000000 1.000000 0.000000
vn 0.000000 1.000000 0.000000
vn 0.000000 1.000000 -0.000000
vn 0.000000 1.000000 -0.000000
vn 0.000000 1.000000 -0.000000
vn 0.000000 1.000000 -0.000000
vn 0.000000 1.000000 0.000000
vn 0.000000 1.000000 0.000000
vn 0.000000 1.000000 0.000000
vn 0.000000 1.000000 0.000000
vn 0.000000 1.000000 0.000000
vn 0.000000 1.000000 0.000000
vn -1.000000 -0.000002 0.000000
vn -1.000000 -0.000002 0.000000
vn -1.000000 -0.000002 0.000000
vn -1.000000 -0.000002 0.000000
vn -1.000000 -0.000002 0.000000
vn -1.000000 -0.000002 0.000000
vn -1.000000 -0.000002 0.000000
vn 0.000000 0.000000 1.000000
vn 0.000000 0.000000 1.000000
vn 0.000000 0.000000 1.000000
vn 0.000000 0.000000 1.000000
vn 1.000000 0.000000 0.000000
vn 1.000000 0.000000 0.000000
vn 1.000000 0.000000 0.000000
vn 1.000000 0.000000 0.000000
vn 1.000000 0.000000 0.000000
vn 1.000000 0.000000 0.000000
vn 1.000000 0.000000 0.000000
vn 1.000000 0.000000 0.000000
vn 1.000000 0.000000 0.000000
vn 1.000000 0.000000 0.000000
vn 1.000000 0.000000 0.000000
vn 1.000000 0.000000 0.000000
vn 1.000000 0.000000 0.000000
vn 1.000000 0.000000 0.000000
vn 0.000000 0.000000 -1.000000
vn 0.000000 0.000000 -1.000000
vn 0.000000 0.000000 -1.000000
vn 0.000000 0.000000 -1.000000
vn -1.000000 -0.000001 0.000000
vn -1.000000 -0.000001 0.000000
vn -1.000000 -0.000001 0.000000
vn -1.000000 -0.000001 0.000000
vn -1.000000 -0.000001 0.000000
vn -1.000000 -0.000001 0.000000
vn -1.000000 -0.000001 0.000000
vn 0.000000 0.988144 0.153533
vn 0.000000 0.988144 0.153533
vn 0.000000 0.999725 -0.023448
vn 0.000000 0.999725 -0.023448
vn 0.000000 0.999725 0.023448
vn 0.000000 0.999725 0.023448
vn 0.000000 0.992777 0.119974
vn 0.000000 0.992777 0.119974
vn 0.000000 0.988329 0.152334
vn 0.000000 0.988329 0.152334
s off
g Book
usemtl initialShadingGroup
f 1/1/1 2/2/2 4/4/3 3/3/4
f 5/5/5 6/6/6 8/8/7 7/7/8
s 1
f 1/9/9 19/36/10 20/37/11 2/10/12
s 2
f 20/38/13 12/22/14 4/4/15 2/2/16
s 3
f 9/15/17 19/35/18 1/1/19 3/3/20
f 5/14/21 7/13/22 17/31/23 9/15/17
s 1
f 17/32/24 7/7/25 8/8/26 18/33/27
s 2
f 8/11/28 6/12/29 12/22/14 18/34/30
s 3
f 9/15/17 21/39/31 10/17/32
s 2
f 12/22/14 11/20/33 22/42/34
s 1
f 21/40/35 22/41/36 11/19/37 10/18/38
s 3
f 9/15/17 10/17/32 23/43/39
s 1
f 10/18/38 11/19/37 24/45/40 23/44/41
s 2
f 12/22/14 24/46/42 11/20/33
s 10
f 35/64/43 36/61/44 43/69/45 44/70/46
s 3
f 9/15/17 27/51/47 13/23/48
s 10
f 45/71/49 46/72/50 39/65/51 40/66/52
s 2
f 12/22/14 14/26/53 28/54/54
s 1
f 27/52/55 28/53/56 14/25/57 13/24/58
s 3
f 9/15/17 15/27/59 25/47/60
s 1
f 15/28/61 16/29/62 26/49/63 25/48/64
s 2
f 12/22/14 26/50/65 16/30/66
s 3
f 9/15/17 13/23/48 21/39/31
s 1
f 13/24/58 14/25/57 22/41/36 21/40/35
s 2
f 12/22/14 22/42/34 14/26/53
s 3
f 9/15/17 23/43/39 15/27/59
s 2
f 12/22/14 16/30/66 24/46/42
s 1
f 23/44/41 24/45/40 16/29/62 15/28/61
s 3
f 9/15/17 25/47/60 19/35/18
s 2
f 12/22/14 20/38/13 26/50/65
s 1
f 25/48/64 26/49/63 20/37/11 19/36/10
s 3
f 9/15/17 17/31/23 27/51/47
s 1
f 17/32/24 18/33/27 28/53/56 27/52/55
s 2
f 12/22/14 28/54/54 18/34/30
s 12
f 30/55/67 9/16/68 3/3/69 31/56/70
f 3/3/69 4/4/71 32/57/72 31/56/70
f 12/21/73 29/58/74 32/57/72 4/4/71
f 6/6/75 33/59/76 29/58/74 12/21/73
f 6/6/75 5/5/77 34/60/78 33/59/76
f 34/60/78 5/5/77 9/16/68 30/55/67
s off
f 43/69/79 36/61/80 30/55/81 31/56/82 37/62/83 47/73/84 51/77/85
f 31/56/86 32/57/87 38/63/88 37/62/89
f 29/58/90 35/64/91 44/70/92 52/78/93 48/74/94 38/63/95 32/57/96
f 33/59/97 39/65/98 46/72/99 50/76/100 42/68/101 35/64/102 29/58/103
f 33/59/104 34/60/105 40/66/106 39/65/107
f 41/67/108 49/75/109 45/71/110 40/66/111 34/60/112 30/55/113 36/61/114
s 10
f 36/61/44 35/64/43 42/68/115 41/67/116
f 44/70/46 43/69/45 51/77/117 52/78/118
f 49/75/119 50/76/120 46/72/50 45/71/49
f 48/74/121 47/73/122 37/62/123 38/63/124
f 41/67/116 42/68/115 50/76/120 49/75/119
f 52/78/118 51/77/117 47/73/122 48/74/121
