# This file uses centimeters as units for non-parametric coordinates.

mtllib Candle1.mtl
g default
v -87.906601 93.282410 132.640121
v -90.142151 93.282410 129.563156
v -93.759369 93.282410 128.387848
v -97.376579 93.282410 129.563156
v -99.612137 93.282410 132.640121
v -99.612137 93.282410 136.443497
v -97.376579 93.282410 139.520462
v -93.759369 93.282410 140.695770
v -90.142151 93.282410 139.520462
v -87.906601 93.282410 136.443481
v -87.906601 112.054459 132.640121
v -90.142151 112.054459 129.563156
v -93.759369 112.054459 128.387848
v -97.376579 112.054459 129.563156
v -99.612137 112.054459 132.640121
v -99.612137 112.054459 136.443497
v -97.376579 112.054459 139.520462
v -93.759369 112.054459 140.695770
v -90.142151 112.054459 139.520462
v -87.906601 112.054459 136.443481
v -89.857529 111.861420 133.274017
v -91.347893 111.861420 131.222702
v -93.759369 111.861420 130.439163
v -96.170837 111.861420 131.222702
v -97.661209 111.861427 133.274017
v -97.661209 111.861420 135.809601
v -96.170837 111.861420 137.860916
v -93.759369 111.861420 138.644455
v -91.347893 111.861420 137.860916
v -89.857529 111.861420 135.809601
v -91.808441 111.453285 133.907913
v -92.553627 111.453293 132.882248
v -93.759369 111.453293 132.490494
v -94.965103 111.453293 132.882248
v -95.710297 111.453293 133.907913
v -95.710297 111.453293 135.175705
v -94.965103 111.453293 136.201370
v -93.759369 111.453293 136.593140
v -92.553627 111.453293 136.201370
v -91.808441 111.453285 135.175705
v -93.759369 111.246925 134.541809
v -93.620750 110.446686 134.403198
v -93.759369 110.446686 134.345795
v -93.897980 110.446686 134.403198
v -93.955383 110.446686 134.541809
v -93.897980 110.446686 134.680420
v -93.759369 110.446686 134.737839
v -93.620750 110.446686 134.680420
v -93.563347 110.446686 134.541809
v -93.503250 110.823921 134.285690
v -93.759369 110.823921 134.179611
v -94.015488 110.823921 134.285690
v -94.121567 110.823921 134.541809
v -94.015488 110.823921 134.797928
v -93.759369 110.823921 134.904007
v -93.503250 110.823921 134.797928
v -93.397171 110.823921 134.541809
v -93.424728 111.388496 134.207184
v -93.759369 111.388496 134.068573
v -94.094002 111.388496 134.207184
v -94.232605 111.388496 134.541809
v -94.094002 111.388496 134.876450
v -93.759369 111.388496 135.015045
v -93.424728 111.388496 134.876450
v -93.286133 111.388496 134.541809
v -93.397171 112.054459 134.179611
v -93.759369 112.054459 134.029572
v -94.121567 112.054459 134.179611
v -94.271606 112.054459 134.541809
v -94.121567 112.054459 134.904007
v -93.759369 112.054459 135.054047
v -93.397171 112.054459 134.904007
v -93.247131 112.054459 134.541809
v -93.424728 112.720413 134.207184
v -93.759369 112.720413 134.068573
v -94.094002 112.720413 134.207184
v -94.232605 112.720413 134.541809
v -94.094002 112.720413 134.876450
v -93.759369 112.720413 135.015045
v -93.424728 112.720413 134.876450
v -93.286133 112.720413 134.541809
v -93.503250 113.284988 134.285690
v -93.759369 113.284988 134.179611
v -94.015488 113.284988 134.285690
v -94.121567 113.284988 134.541809
v -94.015488 113.284988 134.797928
v -93.759369 113.284988 134.904007
v -93.503250 113.284988 134.797928
v -93.397171 113.284988 134.541809
v -93.620750 113.662224 134.403198
v -93.759369 113.662224 134.345795
v -93.897980 113.662224 134.403198
v -93.955383 113.662224 134.541809
v -93.897980 113.662224 134.680420
v -93.759369 113.662224 134.737839
v -93.620750 113.662224 134.680420
v -93.563347 113.662224 134.541809
v -93.759369 110.314224 134.541809
v -93.759369 113.794685 134.541809
vt 0.375000 0.312500
vt 0.400000 0.312500
vt 0.425000 0.312500
vt 0.450000 0.312500
vt 0.475000 0.312500
vt 0.500000 0.312500
vt 0.525000 0.312500
vt 0.550000 0.312500
vt 0.575000 0.312500
vt 0.600000 0.312500
vt 0.625000 0.312500
vt 0.375000 0.687500
vt 0.400000 0.687500
vt 0.425000 0.687500
vt 0.450000 0.687500
vt 0.475000 0.687500
vt 0.500000 0.687500
vt 0.525000 0.687500
vt 0.550000 0.687500
vt 0.575000 0.687500
vt 0.600000 0.687500
vt 0.625000 0.687500
vt 0.648603 0.795466
vt 0.591842 0.717341
vt 0.500000 0.687500
vt 0.408159 0.717341
vt 0.351397 0.795466
vt 0.351397 0.892034
vt 0.408159 0.970159
vt 0.500000 1.000000
vt 0.591841 0.970159
vt 0.648603 0.892034
vt 0.599068 0.811561
vt 0.561228 0.759477
vt 0.500000 0.739583
vt 0.438772 0.759477
vt 0.400932 0.811561
vt 0.400932 0.875939
vt 0.438772 0.928023
vt 0.500000 0.947917
vt 0.561228 0.928023
vt 0.599068 0.875939
vt 0.549534 0.827655
vt 0.530614 0.801614
vt 0.500000 0.791667
vt 0.469386 0.801614
vt 0.450466 0.827655
vt 0.450466 0.859845
vt 0.469386 0.885886
vt 0.500000 0.895833
vt 0.530614 0.885886
vt 0.549534 0.859845
vt 0.500000 0.843750
vt 0.000000 0.125000
vt 0.125000 0.125000
vt 0.125000 0.250000
vt 0.000000 0.250000
vt 0.250000 0.125000
vt 0.250000 0.250000
vt 0.375000 0.125000
vt 0.375000 0.250000
vt 0.500000 0.125000
vt 0.500000 0.250000
vt 0.625000 0.125000
vt 0.625000 0.250000
vt 0.750000 0.125000
vt 0.750000 0.250000
vt 0.875000 0.125000
vt 0.875000 0.250000
vt 1.000000 0.125000
vt 1.000000 0.250000
vt 0.125000 0.375000
vt 0.000000 0.375000
vt 0.250000 0.375000
vt 0.375000 0.375000
vt 0.500000 0.375000
vt 0.625000 0.375000
vt 0.750000 0.375000
vt 0.875000 0.375000
vt 1.000000 0.375000
vt 0.125000 0.500000
vt 0.000000 0.500000
vt 0.250000 0.500000
vt 0.375000 0.500000
vt 0.500000 0.500000
vt 0.625000 0.500000
vt 0.750000 0.500000
vt 0.875000 0.500000
vt 1.000000 0.500000
vt 0.125000 0.625000
vt 0.000000 0.625000
vt 0.250000 0.625000
vt 0.375000 0.625000
vt 0.500000 0.625000
vt 0.625000 0.625000
vt 0.750000 0.625000
vt 0.875000 0.625000
vt 1.000000 0.625000
vt 0.125000 0.750000
vt 0.000000 0.750000
vt 0.250000 0.750000
vt 0.375000 0.750000
vt 0.500000 0.750000
vt 0.625000 0.750000
vt 0.750000 0.750000
vt 0.875000 0.750000
vt 1.000000 0.750000
vt 0.125000 0.875000
vt 0.000000 0.875000
vt 0.250000 0.875000
vt 0.375000 0.875000
vt 0.500000 0.875000
vt 0.625000 0.875000
vt 0.750000 0.875000
vt 0.875000 0.875000
vt 1.000000 0.875000
vt 0.062500 0.000000
vt 0.187500 0.000000
vt 0.312500 0.000000
vt 0.437500 0.000000
vt 0.562500 0.000000
vt 0.687500 0.000000
vt 0.812500 0.000000
vt 0.937500 0.000000
vt 0.062500 1.000000
vt 0.187500 1.000000
vt 0.312500 1.000000
vt 0.437500 1.000000
vt 0.562500 1.000000
vt 0.687500 1.000000
vt 0.812500 1.000000
vt 0.937500 1.000000
vn 0.951057 0.000000 -0.309017
vn 0.951057 0.000000 -0.309017
vn 0.587784 0.000000 -0.809018
vn 0.587784 0.000000 -0.809018
vn 0.000000 0.000000 -1.000000
vn 0.000000 0.000000 -1.000000
vn -0.587783 0.000000 -0.809018
vn -0.587783 0.000000 -0.809018
vn -0.951057 0.000000 -0.309017
vn -0.951057 0.000000 -0.309017
vn -0.951057 0.000000 0.309017
vn -0.951057 0.000000 0.309017
vn -0.587785 0.000000 0.809017
vn -0.587785 0.000000 0.809017
vn 0.000000 0.000000 1.000000
vn 0.000000 0.000000 1.000000
vn 0.587786 0.000000 0.809017
vn 0.587786 0.000000 0.809017
vn 0.951057 0.000000 0.309016
vn 0.951057 0.000000 0.309016
vn -0.117207 0.992377 0.038084
vn -0.089105 0.995601 0.028952
vn -0.055070 0.995601 0.075799
vn -0.072438 0.992377 0.099704
vn 0.000000 0.995601 0.093692
vn 0.000000 0.992377 0.123239
vn 0.055069 0.995601 0.075798
vn 0.072438 0.992377 0.099702
vn 0.089104 0.995601 0.028954
vn 0.117206 0.992377 0.038084
vn 0.089104 0.995602 -0.028951
vn 0.117206 0.992377 -0.038082
vn 0.055070 0.995601 -0.075798
vn 0.072438 0.992377 -0.099703
vn 0.000000 0.995601 -0.093692
vn 0.000000 0.992377 -0.123240
vn -0.055070 0.995601 -0.075800
vn -0.072438 0.992377 -0.099705
vn -0.089105 0.995601 -0.028953
vn -0.117208 0.992377 -0.038085
vn -0.169397 0.984010 0.055045
vn -0.104692 0.984010 0.144100
vn -0.000000 0.984010 0.178111
vn 0.104694 0.984010 0.144095
vn 0.169398 0.984010 0.055040
vn 0.169397 0.984010 -0.055039
vn 0.104693 0.984010 -0.144097
vn 0.000000 0.984010 -0.178112
vn -0.104693 0.984010 -0.144098
vn -0.169397 0.984010 -0.055044
vn 0.000001 1.000000 0.000003
vn 0.354469 -0.376971 -0.855713
vn 0.354469 -0.376971 -0.855713
vn 0.354469 -0.376971 -0.855713
vn 0.354469 -0.376971 -0.855713
vn -0.354475 -0.376956 -0.855717
vn -0.354475 -0.376956 -0.855717
vn -0.354475 -0.376956 -0.855717
vn -0.354475 -0.376956 -0.855717
vn -0.855734 -0.376973 -0.354415
vn -0.855734 -0.376973 -0.354415
vn -0.855734 -0.376973 -0.354415
vn -0.855734 -0.376973 -0.354415
vn -0.855716 -0.376996 0.354436
vn -0.855716 -0.376996 0.354436
vn -0.855716 -0.376995 0.354436
vn -0.855716 -0.376996 0.354436
vn -0.354475 -0.376956 0.855717
vn -0.354475 -0.376956 0.855717
vn -0.354475 -0.376956 0.855717
vn -0.354475 -0.376956 0.855717
vn 0.354470 -0.376940 0.855726
vn 0.354470 -0.376940 0.855726
vn 0.354470 -0.376940 0.855726
vn 0.354470 -0.376940 0.855726
vn 0.855729 -0.376980 0.354420
vn 0.855729 -0.376980 0.354420
vn 0.855729 -0.376980 0.354420
vn 0.855729 -0.376980 0.354420
vn 0.855741 -0.376965 -0.354407
vn 0.855741 -0.376965 -0.354407
vn 0.855741 -0.376965 -0.354407
vn 0.855741 -0.376965 -0.354407
vn 0.376525 -0.178768 -0.908995
vn 0.376525 -0.178768 -0.908994
vn 0.376525 -0.178768 -0.908995
vn 0.376525 -0.178768 -0.908995
vn -0.376523 -0.178769 -0.908995
vn -0.376523 -0.178769 -0.908995
vn -0.376523 -0.178769 -0.908995
vn -0.376523 -0.178769 -0.908995
vn -0.909006 -0.178756 -0.376502
vn -0.909006 -0.178756 -0.376502
vn -0.909006 -0.178756 -0.376502
vn -0.909006 -0.178756 -0.376502
vn -0.909004 -0.178771 0.376501
vn -0.909004 -0.178771 0.376501
vn -0.909004 -0.178771 0.376501
vn -0.909004 -0.178771 0.376501
vn -0.376486 -0.178787 0.909007
vn -0.376486 -0.178787 0.909007
vn -0.376486 -0.178787 0.909007
vn -0.376486 -0.178787 0.909007
vn 0.376486 -0.178787 0.909007
vn 0.376486 -0.178787 0.909007
vn 0.376486 -0.178787 0.909007
vn 0.376486 -0.178787 0.909007
vn 0.909008 -0.178777 0.376487
vn 0.909008 -0.178777 0.376487
vn 0.909008 -0.178777 0.376487
vn 0.909008 -0.178777 0.376487
vn 0.909009 -0.178772 -0.376487
vn 0.909009 -0.178772 -0.376487
vn 0.909009 -0.178772 -0.376487
vn 0.909009 -0.178772 -0.376487
vn 0.382133 -0.054017 -0.922527
vn 0.382133 -0.054017 -0.922527
vn 0.382133 -0.054017 -0.922527
vn 0.382133 -0.054017 -0.922527
vn -0.382138 -0.054019 -0.922525
vn -0.382138 -0.054019 -0.922525
vn -0.382138 -0.054019 -0.922525
vn -0.382138 -0.054019 -0.922525
vn -0.922527 -0.054030 -0.382131
vn -0.922527 -0.054030 -0.382131
vn -0.922527 -0.054030 -0.382131
vn -0.922527 -0.054030 -0.382131
vn -0.922528 -0.054024 0.382130
vn -0.922528 -0.054024 0.382130
vn -0.922528 -0.054024 0.382130
vn -0.922528 -0.054024 0.382130
vn -0.382115 -0.054012 0.922535
vn -0.382115 -0.054012 0.922535
vn -0.382115 -0.054012 0.922535
vn -0.382115 -0.054012 0.922535
vn 0.382107 -0.054005 0.922539
vn 0.382107 -0.054005 0.922539
vn 0.382107 -0.054005 0.922539
vn 0.382107 -0.054005 0.922539
vn 0.922531 -0.054004 0.382126
vn 0.922531 -0.054004 0.382126
vn 0.922531 -0.054004 0.382126
vn 0.922531 -0.054004 0.382126
vn 0.922532 -0.054009 -0.382124
vn 0.922532 -0.054009 -0.382124
vn 0.922532 -0.054009 -0.382124
vn 0.922532 -0.054009 -0.382124
vn 0.382139 0.054018 -0.922525
vn 0.382139 0.054018 -0.922525
vn 0.382139 0.054018 -0.922525
vn 0.382139 0.054018 -0.922525
vn -0.382144 0.054020 -0.922523
vn -0.382144 0.054020 -0.922523
vn -0.382144 0.054020 -0.922523
vn -0.382144 0.054020 -0.922523
vn -0.922526 0.054032 -0.382134
vn -0.922526 0.054032 -0.382134
vn -0.922526 0.054032 -0.382134
vn -0.922526 0.054032 -0.382134
vn -0.922529 0.054024 0.382127
vn -0.922529 0.054024 0.382127
vn -0.922530 0.054024 0.382127
vn -0.922529 0.054024 0.382127
vn -0.382120 0.054013 0.922533
vn -0.382120 0.054013 0.922533
vn -0.382120 0.054013 0.922533
vn -0.382120 0.054013 0.922533
vn 0.382113 0.054010 0.922536
vn 0.382113 0.054010 0.922536
vn 0.382113 0.054010 0.922536
vn 0.382113 0.054010 0.922536
vn 0.922535 0.054004 0.382115
vn 0.922535 0.054004 0.382115
vn 0.922535 0.054004 0.382115
vn 0.922535 0.054004 0.382115
vn 0.922531 0.054010 -0.382125
vn 0.922531 0.054010 -0.382125
vn 0.922531 0.054010 -0.382125
vn 0.922531 0.054010 -0.382125
vn 0.376527 0.178774 -0.908993
vn 0.376526 0.178774 -0.908993
vn 0.376526 0.178774 -0.908993
vn 0.376526 0.178774 -0.908993
vn -0.376526 0.178776 -0.908992
vn -0.376526 0.178776 -0.908992
vn -0.376526 0.178776 -0.908992
vn -0.376526 0.178776 -0.908992
vn -0.909008 0.178756 -0.376497
vn -0.909008 0.178756 -0.376497
vn -0.909008 0.178756 -0.376497
vn -0.909008 0.178756 -0.376497
vn -0.909006 0.178772 0.376496
vn -0.909006 0.178772 0.376496
vn -0.909006 0.178772 0.376496
vn -0.909006 0.178772 0.376496
vn -0.376490 0.178784 0.909006
vn -0.376490 0.178784 0.909006
vn -0.376490 0.178784 0.909006
vn -0.376490 0.178784 0.909006
vn 0.376490 0.178789 0.909005
vn 0.376490 0.178789 0.909005
vn 0.376490 0.178789 0.909005
vn 0.376490 0.178789 0.909005
vn 0.909008 0.178777 0.376487
vn 0.909008 0.178777 0.376487
vn 0.909008 0.178777 0.376487
vn 0.909008 0.178777 0.376487
vn 0.909009 0.178772 -0.376487
vn 0.909009 0.178772 -0.376487
vn 0.909009 0.178772 -0.376487
vn 0.909009 0.178772 -0.376487
vn 0.354466 0.376968 -0.855716
vn 0.354466 0.376968 -0.855716
vn 0.354466 0.376968 -0.855716
vn 0.354466 0.376968 -0.855716
vn -0.354479 0.376960 -0.855714
vn -0.354479 0.376960 -0.855714
vn -0.354479 0.376960 -0.855714
vn -0.354479 0.376960 -0.855714
vn -0.855734 0.376973 -0.354415
vn -0.855734 0.376973 -0.354415
vn -0.855734 0.376973 -0.354415
vn -0.855734 0.376973 -0.354415
vn -0.855726 0.376989 0.354419
vn -0.855726 0.376989 0.354419
vn -0.855726 0.376989 0.354419
vn -0.855726 0.376989 0.354419
vn -0.354480 0.376950 0.855718
vn -0.354480 0.376950 0.855718
vn -0.354480 0.376950 0.855718
vn -0.354480 0.376950 0.855718
vn 0.354467 0.376958 0.855719
vn 0.354467 0.376958 0.855719
vn 0.354467 0.376958 0.855719
vn 0.354467 0.376958 0.855719
vn 0.855730 0.376980 0.354420
vn 0.855730 0.376980 0.354420
vn 0.855729 0.376980 0.354420
vn 0.855729 0.376980 0.354420
vn 0.855741 0.376965 -0.354407
vn 0.855741 0.376966 -0.354407
vn 0.855741 0.376965 -0.354407
vn 0.855741 0.376965 -0.354407
vn 0.225859 -0.807108 -0.545495
vn 0.225859 -0.807108 -0.545495
vn 0.225859 -0.807108 -0.545495
vn -0.225855 -0.807153 -0.545430
vn -0.225855 -0.807153 -0.545430
vn -0.225855 -0.807153 -0.545430
vn -0.545510 -0.807103 -0.225841
vn -0.545510 -0.807103 -0.225841
vn -0.545510 -0.807103 -0.225841
vn -0.545430 -0.807153 0.225855
vn -0.545430 -0.807153 0.225855
vn -0.545430 -0.807153 0.225855
vn -0.225953 -0.807152 0.545391
vn -0.225953 -0.807152 0.545391
vn -0.225953 -0.807152 0.545391
vn 0.225956 -0.807107 0.545456
vn 0.225956 -0.807107 0.545456
vn 0.225956 -0.807107 0.545456
vn 0.545391 -0.807152 0.225953
vn 0.545391 -0.807152 0.225953
vn 0.545391 -0.807152 0.225953
vn 0.545478 -0.807112 -0.225885
vn 0.545478 -0.807112 -0.225885
vn 0.545478 -0.807112 -0.225885
vn 0.225855 0.807153 -0.545430
vn 0.225855 0.807153 -0.545430
vn 0.225855 0.807153 -0.545430
vn -0.225859 0.807108 -0.545495
vn -0.225859 0.807108 -0.545495
vn -0.225859 0.807108 -0.545495
vn -0.545503 0.807092 -0.225895
vn -0.545503 0.807092 -0.225895
vn -0.545503 0.807092 -0.225895
vn -0.545430 0.807153 0.225855
vn -0.545430 0.807153 0.225855
vn -0.545430 0.807153 0.225855
vn -0.225946 0.807127 0.545431
vn -0.225946 0.807127 0.545431
vn -0.225946 0.807127 0.545431
vn 0.225953 0.807152 0.545391
vn 0.225953 0.807152 0.545391
vn 0.225953 0.807152 0.545391
vn 0.545391 0.807152 0.225953
vn 0.545391 0.807152 0.225953
vn 0.545391 0.807152 0.225953
vn 0.545471 0.807102 -0.225939
vn 0.545471 0.807102 -0.225939
vn 0.545471 0.807102 -0.225939
s 1
g Candle_5
usemtl initialShadingGroup
f 11/12/1 1/1/2 2/2/3 12/13/4
f 12/13/4 2/2/3 3/3/5 13/14/6
f 13/14/6 3/3/5 4/4/7 14/15/8
f 14/15/8 4/4/7 5/5/9 15/16/10
f 15/16/10 5/5/9 6/6/11 16/17/12
f 16/17/12 6/6/11 7/7/13 17/18/14
f 17/18/14 7/7/13 8/8/15 18/19/16
f 18/19/16 8/8/15 9/9/17 19/20/18
f 19/20/18 9/9/17 10/10/19 20/21/20
f 20/21/20 10/10/19 1/11/2 11/22/1
s 2
f 21/42/21 11/32/22 12/31/23 22/41/24
f 22/41/24 12/31/23 13/30/25 23/40/26
f 23/40/26 13/30/25 14/29/27 24/39/28
f 24/39/28 14/29/27 15/28/29 25/38/30
f 25/38/30 15/28/29 16/27/31 26/37/32
f 26/37/32 16/27/31 17/26/33 27/36/34
f 27/36/34 17/26/33 18/25/35 28/35/36
f 28/35/36 18/25/35 19/24/37 29/34/38
f 29/34/38 19/24/37 20/23/39 30/33/40
f 30/33/40 20/23/39 11/32/22 21/42/21
f 31/52/41 21/42/21 22/41/24 32/51/42
f 32/51/42 22/41/24 23/40/26 33/50/43
f 33/50/43 23/40/26 24/39/28 34/49/44
f 34/49/44 24/39/28 25/38/30 35/48/45
f 35/48/45 25/38/30 26/37/32 36/47/46
f 36/47/46 26/37/32 27/36/34 37/46/47
f 37/46/47 27/36/34 28/35/36 38/45/48
f 38/45/48 28/35/36 29/34/38 39/44/49
f 39/44/49 29/34/38 30/33/40 40/43/50
f 40/43/50 30/33/40 21/42/21 31/52/41
f 41/53/51 31/52/41 32/51/42
f 41/53/51 32/51/42 33/50/43
f 41/53/51 33/50/43 34/49/44
f 41/53/51 34/49/44 35/48/45
f 41/53/51 35/48/45 36/47/46
f 41/53/51 36/47/46 37/46/47
f 41/53/51 37/46/47 38/45/48
f 41/53/51 38/45/48 39/44/49
f 41/53/51 39/44/49 40/43/50
f 41/53/51 40/43/50 31/52/41
s off
f 42/54/52 43/55/53 51/56/54 50/57/55
f 43/55/56 44/58/57 52/59/58 51/56/59
f 44/58/60 45/60/61 53/61/62 52/59/63
f 45/60/64 46/62/65 54/63/66 53/61/67
f 46/62/68 47/64/69 55/65/70 54/63/71
f 47/64/72 48/66/73 56/67/74 55/65/75
f 48/66/76 49/68/77 57/69/78 56/67/79
f 49/68/80 42/70/81 50/71/82 57/69/83
f 50/57/84 51/56/85 59/72/86 58/73/87
f 51/56/88 52/59/89 60/74/90 59/72/91
f 52/59/92 53/61/93 61/75/94 60/74/95
f 53/61/96 54/63/97 62/76/98 61/75/99
f 54/63/100 55/65/101 63/77/102 62/76/103
f 55/65/104 56/67/105 64/78/106 63/77/107
f 56/67/108 57/69/109 65/79/110 64/78/111
f 57/69/112 50/71/113 58/80/114 65/79/115
f 58/73/116 59/72/117 67/81/118 66/82/119
f 59/72/120 60/74/121 68/83/122 67/81/123
f 60/74/124 61/75/125 69/84/126 68/83/127
f 61/75/128 62/76/129 70/85/130 69/84/131
f 62/76/132 63/77/133 71/86/134 70/85/135
f 63/77/136 64/78/137 72/87/138 71/86/139
f 64/78/140 65/79/141 73/88/142 72/87/143
f 65/79/144 58/80/145 66/89/146 73/88/147
f 66/82/148 67/81/149 75/90/150 74/91/151
f 67/81/152 68/83/153 76/92/154 75/90/155
f 68/83/156 69/84/157 77/93/158 76/92/159
f 69/84/160 70/85/161 78/94/162 77/93/163
f 70/85/164 71/86/165 79/95/166 78/94/167
f 71/86/168 72/87/169 80/96/170 79/95/171
f 72/87/172 73/88/173 81/97/174 80/96/175
f 73/88/176 66/89/177 74/98/178 81/97/179
f 74/91/180 75/90/181 83/99/182 82/100/183
f 75/90/184 76/92/185 84/101/186 83/99/187
f 76/92/188 77/93/189 85/102/190 84/101/191
f 77/93/192 78/94/193 86/103/194 85/102/195
f 78/94/196 79/95/197 87/104/198 86/103/199
f 79/95/200 80/96/201 88/105/202 87/104/203
f 80/96/204 81/97/205 89/106/206 88/105/207
f 81/97/208 74/98/209 82/107/210 89/106/211
f 82/100/212 83/99/213 91/108/214 90/109/215
f 83/99/216 84/101/217 92/110/218 91/108/219
f 84/101/220 85/102/221 93/111/222 92/110/223
f 85/102/224 86/103/225 94/112/226 93/111/227
f 86/103/228 87/104/229 95/113/230 94/112/231
f 87/104/232 88/105/233 96/114/234 95/113/235
f 88/105/236 89/106/237 97/115/238 96/114/239
f 89/106/240 82/107/241 90/116/242 97/115/243
f 43/55/244 42/54/245 98/117/246
f 44/58/247 43/55/248 98/118/249
f 45/60/250 44/58/251 98/119/252
f 46/62/253 45/60/254 98/120/255
f 47/64/256 46/62/257 98/121/258
f 48/66/259 47/64/260 98/122/261
f 49/68/262 48/66/263 98/123/264
f 42/70/265 49/68/266 98/124/267
f 90/109/268 91/108/269 99/125/270
f 91/108/271 92/110/272 99/126/273
f 92/110/274 93/111/275 99/127/276
f 93/111/277 94/112/278 99/128/279
f 94/112/280 95/113/281 99/129/282
f 95/113/283 96/114/284 99/130/285
f 96/114/286 97/115/287 99/131/288
f 97/115/289 90/116/290 99/132/291
