# This file uses centimeters as units for non-parametric coordinates.

mtllib Light1.mtl
g default
v -49.167847 277.558868 6.760981
v 49.167847 277.558868 6.760981
v -49.167847 285.264160 11.031898
v 49.167847 285.264160 11.031898
v -49.167847 285.264160 -11.031898
v 49.167847 285.264160 -11.031898
v -49.167847 277.558868 -6.760981
v 49.167847 277.558868 -6.760981
vt 0.375000 0.000000
vt 0.625000 0.000000
vt 0.375000 0.250000
vt 0.625000 0.250000
vt 0.375000 0.500000
vt 0.625000 0.500000
vt 0.375000 0.750000
vt 0.625000 0.750000
vt 0.375000 1.000000
vt 0.625000 1.000000
vt 0.875000 0.000000
vt 0.875000 0.250000
vt 0.125000 0.000000
vt 0.125000 0.250000
vn 0.000000 -0.484793 0.874629
vn 0.000000 -0.484793 0.874629
vn 0.000000 -0.484793 0.874629
vn 0.000000 -0.484793 0.874629
vn 0.000000 -0.484793 -0.874629
vn 0.000000 -0.484793 -0.874629
vn 0.000000 -0.484793 -0.874629
vn 0.000000 -0.484793 -0.874629
vn 0.000000 -1.000000 0.000000
vn 0.000000 -1.000000 0.000000
vn 0.000000 -1.000000 0.000000
vn 0.000000 -1.000000 0.000000
vn 1.000000 -0.000000 0.000000
vn 1.000000 -0.000000 0.000000
vn 1.000000 -0.000000 0.000000
vn 1.000000 -0.000000 0.000000
vn -1.000000 -0.000000 0.000000
vn -1.000000 -0.000000 0.000000
vn -1.000000 -0.000000 0.000000
vn -1.000000 -0.000000 0.000000
s off
g Light
usemtl initialShadingGroup
f 1/1/1 2/2/2 4/4/3 3/3/4
f 5/5/5 6/6/6 8/8/7 7/7/8
f 7/7/9 8/8/10 2/10/11 1/9/12
f 2/2/13 8/11/14 6/12/15 4/4/16
f 7/13/17 1/1/18 3/3/19 5/14/20
