# This file uses centimeters as units for non-parametric coordinates.

mtllib Pipes1.mtl
g default
v -143.397202 155.414383 -27.083069
v -117.408241 155.414383 -27.083069
v -143.397202 198.703094 -27.083069
v -117.408241 198.703094 -27.083069
v -143.397202 198.703094 -50.964024
v -117.408241 198.703094 -50.964024
v -143.397202 155.414383 -50.964024
v -117.408241 155.414383 -50.964024
v -143.397202 177.058731 -27.083069
v -117.408241 177.058731 -27.083069
v -117.408241 177.058731 -50.964024
v -143.397202 177.058731 -50.964024
v -143.397202 177.058731 -4.189743
v -117.408241 177.058731 -4.189743
v -117.408241 198.703094 -4.189743
v -143.397202 198.703094 -4.189743
v -143.397202 155.414520 -52.352406
v -117.408249 155.414520 -52.352406
v -143.397202 285.264160 -52.352406
v -117.408249 285.264160 -52.352406
v -143.397202 285.264160 -76.233360
v -117.408249 285.264160 -76.233360
v -143.397202 155.414520 -76.233360
v -117.408249 155.414520 -76.233360
v -143.397202 155.414520 -77.280746
v -117.408249 155.414520 -77.280746
v -143.397202 285.264160 -77.280746
v -117.408249 285.264160 -77.280746
v -143.397202 285.264160 -101.161697
v -117.408249 285.264160 -101.161697
v -143.397202 155.414520 -101.161697
v -117.408249 155.414520 -101.161697
v -143.397202 155.414398 -102.978745
v -117.408241 155.414398 -102.978745
v -143.397202 191.007416 -102.978745
v -117.408241 191.007416 -102.978745
v -143.397202 194.115829 -126.859673
v -117.408241 194.115829 -126.859673
v -143.397202 155.414398 -126.859673
v -117.408241 155.414398 -126.859673
v -143.397202 214.559631 -105.922867
v -117.408241 214.559631 -105.922867
v -143.397202 203.128815 -129.060989
v -117.408241 203.128815 -129.060989
v -143.397202 226.813492 -126.859673
v -117.408241 226.813492 -126.859673
v -143.397202 203.128815 -139.977493
v -117.408241 203.128815 -143.814941
v -143.397202 226.813492 -143.814941
v -117.408241 226.813492 -143.814941
vt 0.375000 0.000000
vt 0.625000 0.000000
vt 0.375000 0.250000
vt 0.625000 0.250000
vt 0.375000 0.500000
vt 0.750000 0.375000
vt 0.375000 0.750000
vt 0.625000 0.750000
vt 0.875000 0.000000
vt 0.125000 0.000000
vt 0.375000 0.125000
vt 0.625000 0.125000
vt 0.687500 0.562500
vt 0.812500 0.187500
vt 0.375000 0.625000
vt 0.125000 0.125000
vt 0.375000 0.125000
vt 0.625000 0.125000
vt 0.625000 0.250000
vt 0.375000 0.250000
vt 0.375000 0.000000
vt 0.625000 0.000000
vt 0.625000 0.250000
vt 0.375000 0.250000
vt 0.375000 0.500000
vt 0.625000 0.500000
vt 0.625000 0.750000
vt 0.375000 0.750000
vt 0.875000 0.000000
vt 0.875000 0.250000
vt 0.125000 0.000000
vt 0.125000 0.250000
vt 0.375000 0.000000
vt 0.625000 0.000000
vt 0.625000 0.250000
vt 0.375000 0.250000
vt 0.375000 0.500000
vt 0.625000 0.500000
vt 0.625000 0.750000
vt 0.375000 0.750000
vt 0.875000 0.000000
vt 0.875000 0.250000
vt 0.125000 0.000000
vt 0.125000 0.250000
vt 0.375000 0.000000
vt 0.625000 0.000000
vt 0.625000 0.250000
vt 0.375000 0.250000
vt 0.375000 0.500000
vt 0.625000 0.500000
vt 0.625000 0.750000
vt 0.375000 0.750000
vt 0.875000 0.000000
vt 0.875000 0.250000
vt 0.125000 0.000000
vt 0.125000 0.250000
vt 0.000000 0.000000
vt 1.000000 0.000000
vt 1.000000 1.000000
vt 0.000000 1.000000
vt 0.000000 0.000000
vt 1.000000 0.000000
vt 1.000000 1.000000
vt 0.000000 1.000000
vt 0.000000 0.000000
vt 1.000000 0.000000
vt 1.000000 1.000000
vt 0.000000 1.000000
vt 0.000000 0.000000
vt 1.000000 0.000000
vt 1.000000 1.000000
vt 0.000000 1.000000
vt 0.000000 0.000000
vt 1.000000 0.000000
vt 0.000000 1.000000
vt 0.000000 0.000000
vt 1.000000 0.000000
vt 1.000000 1.000000
vt 0.000000 1.000000
vt 0.000000 0.000000
vt 1.000000 0.000000
vt 1.000000 1.000000
vt 0.000000 1.000000
vt 1.000000 1.000000
vt 0.000000 1.000000
vt 0.000000 0.000000
vt 1.000000 0.000000
vn 0.000000 0.000000 1.000000
vn 0.000000 0.000000 1.000000
vn 0.000000 0.000000 1.000000
vn 0.000000 0.000000 1.000000
vn 0.000000 0.000000 -1.000000
vn 0.000000 0.000000 -1.000000
vn 0.000000 0.000000 -1.000000
vn 0.000000 0.000000 -1.000000
vn 1.000000 0.000000 0.000000
vn 1.000000 0.000000 0.000000
vn 1.000000 0.000000 0.000000
vn 1.000000 0.000000 0.000000
vn 1.000000 0.000000 0.000000
vn 1.000000 0.000000 0.000000
vn 1.000000 0.000000 0.000000
vn 1.000000 0.000000 0.000000
vn 0.000000 1.000000 0.000000
vn 0.000000 1.000000 0.000000
vn 0.000000 1.000000 0.000000
vn 0.000000 1.000000 0.000000
vn 0.000000 0.000000 1.000000
vn 0.000000 0.000000 1.000000
vn 0.000000 0.000000 1.000000
vn 0.000000 0.000000 1.000000
vn 1.000000 0.000000 0.000000
vn 1.000000 0.000000 0.000000
vn 0.000000 0.000000 -1.000000
vn 0.000000 0.000000 -1.000000
vn 0.000000 -1.000000 0.000000
vn 0.000000 -1.000000 0.000000
vn 0.000000 -1.000000 0.000000
vn 0.000000 -1.000000 0.000000
vn 1.000000 0.000000 0.000000
vn 1.000000 0.000000 0.000000
vn 1.000000 0.000000 0.000000
vn 1.000000 0.000000 0.000000
vn 0.000000 1.000000 0.000000
vn 0.000000 1.000000 0.000000
vn 0.000000 1.000000 0.000000
vn 0.000000 1.000000 0.000000
vn 0.000000 0.000000 1.000000
vn 0.000000 0.000000 1.000000
vn 0.000000 0.000000 1.000000
vn 0.000000 0.000000 1.000000
vn 0.000000 0.000000 -1.000000
vn 0.000000 0.000000 -1.000000
vn 0.000000 0.000000 -1.000000
vn 0.000000 0.000000 -1.000000
vn 1.000000 0.000000 0.000000
vn 1.000000 0.000000 0.000000
vn 1.000000 0.000000 0.000000
vn 1.000000 0.000000 0.000000
vn 1.000000 0.000000 0.000000
vn 1.000000 0.000000 0.000000
vn 1.000000 0.000000 0.000000
vn 1.000000 0.000000 0.000000
vn 0.000000 0.000000 1.000000
vn 0.000000 0.000000 1.000000
vn 0.000000 0.000000 1.000000
vn 0.000000 0.000000 1.000000
vn 0.000000 0.000000 -1.000000
vn 0.000000 0.000000 -1.000000
vn 0.000000 0.000000 -1.000000
vn 0.000000 0.000000 -1.000000
vn 1.000000 0.000000 0.000000
vn 1.000000 0.000000 0.000000
vn 1.000000 0.000000 0.000000
vn 1.000000 0.000000 0.000000
vn 1.000000 0.000000 0.000000
vn 1.000000 0.000000 0.000000
vn 1.000000 0.000000 0.000000
vn 1.000000 0.000000 0.000000
vn 0.000000 0.000000 1.000000
vn 0.000000 0.000000 1.000000
vn 0.000000 0.000000 1.000000
vn 0.000000 0.000000 1.000000
vn 0.000000 0.000000 -1.000000
vn 0.000000 0.000000 -1.000000
vn 0.000000 0.000000 -1.000000
vn 0.000000 0.000000 -1.000000
vn 1.000000 0.000000 0.000000
vn 1.000000 0.000000 0.000000
vn 1.000000 0.000000 0.000000
vn 1.000000 0.000000 0.000000
vn 1.000000 0.000000 0.000000
vn 1.000000 0.000000 0.000000
vn 1.000000 0.000000 0.000000
vn 1.000000 0.000000 0.000000
vn 0.000000 0.124039 0.992277
vn 0.000000 0.124039 0.992277
vn 0.000000 0.124039 0.992277
vn 0.000000 0.124039 0.992277
vn 0.000000 -0.237264 -0.971445
vn 0.000000 -0.237264 -0.971445
vn 0.000000 -0.237264 -0.971445
vn 0.000000 -0.237264 -0.971445
vn 1.000000 -0.000000 0.000000
vn 1.000000 -0.000000 0.000000
vn 1.000000 -0.000000 0.000000
vn 1.000000 -0.000000 0.000000
vn 0.000000 0.863047 0.505123
vn 0.000000 0.863047 0.505123
vn 0.000000 0.863047 0.505123
vn 0.000000 0.863047 0.505123
vn 1.000000 0.000000 0.000000
vn 1.000000 0.000000 0.000000
vn 1.000000 0.000000 0.000000
vn 0.000000 -1.000000 0.000000
vn 0.000000 -1.000000 0.000000
vn 0.000000 -1.000000 0.000000
vn 0.000000 -1.000000 0.000000
vn 0.000000 1.000000 0.000000
vn 0.000000 1.000000 0.000000
vn 0.000000 1.000000 0.000000
vn 0.000000 1.000000 0.000000
vn 1.000000 0.000000 0.000000
vn 1.000000 0.000000 0.000000
vn 1.000000 0.000000 0.000000
vn 1.000000 0.000000 0.000000
s off
g Pipes1
usemtl initialShadingGroup
f 13/17/1 14/18/2 15/19/3 16/20/4
s 1
f 5/5/5 6/6/6 11/13/7 12/15/8
s 2
f 10/12/9 11/14/10 6/6/11 4/4/12
s off
f 7/10/13 12/16/14 9/11/15 1/1/16
f 3/3/17 4/4/18 6/6/19 5/5/20
f 1/1/21 2/2/22 10/12/23 9/11/24
s 2
f 2/2/25 8/9/26 11/14/10 10/12/9
s 1
f 12/15/8 11/13/7 8/8/27 7/7/28
s off
f 9/11/29 10/12/30 14/18/31 13/17/32
f 10/12/33 4/4/34 15/19/35 14/18/36
f 4/4/37 3/3/38 16/20/39 15/19/40
f 17/21/41 18/22/42 20/23/43 19/24/44
f 21/25/45 22/26/46 24/27/47 23/28/48
f 18/22/49 24/29/50 22/30/51 20/23/52
f 23/31/53 21/32/54 19/24/55 17/21/56
f 25/33/57 26/34/58 28/35/59 27/36/60
f 29/37/61 30/38/62 32/39/63 31/40/64
f 26/34/65 32/41/66 30/42/67 28/35/68
f 31/43/69 29/44/70 27/36/71 25/33/72
f 33/45/73 34/46/74 36/47/75 35/48/76
f 37/49/77 38/50/78 40/51/79 39/52/80
f 34/46/81 40/53/82 38/54/83 36/47/84
f 39/55/85 37/56/86 35/48/87 33/45/88
f 35/57/89 36/58/90 42/59/91 41/60/92
f 38/61/93 37/62/94 43/63/95 44/64/96
f 36/65/97 38/66/98 44/67/99 42/68/100
f 41/69/101 42/70/102 46/71/103 45/72/104
f 42/73/105 44/74/106 46/75/107
f 44/76/108 43/77/109 47/78/110 48/79/111
f 45/80/112 46/81/113 50/82/114 49/83/115
f 48/84/116 50/85/117 46/86/118 44/87/119
