# This file uses centimeters as units for non-parametric coordinates.

mtllib Wall_Far.mtl
g default
v -54.778202 188.885254 143.397186
v 54.778202 188.885254 143.397186
v -54.778202 201.844696 143.397186
v 54.778202 201.844696 143.397186
v -54.778202 201.844696 138.095337
v 54.778202 201.844696 138.095337
v -54.778202 188.885254 138.095337
v 54.778202 188.885254 138.095337
v 43.822563 188.885254 143.397186
v 43.822563 188.885254 138.095337
v 43.822563 201.844696 138.095337
v 43.822563 201.844696 143.397186
v -43.822563 188.885254 143.397186
v -43.822563 188.885254 138.095337
v -43.822563 201.844696 138.095337
v -43.822563 201.844696 143.397186
v 43.822567 188.885254 136.556824
v 43.822567 201.844696 136.556824
v 54.778210 201.844696 136.556824
v 54.778210 188.885254 136.556824
v -54.778202 201.844696 136.556824
v -43.822563 201.844696 136.556824
v -43.822563 188.885254 136.556824
v -54.778202 188.885254 136.556824
v 43.822563 88.885223 143.397186
v 43.822563 88.885223 138.095337
v 54.778202 88.885223 138.095337
v 54.778202 88.885223 143.397186
v -54.778202 88.885223 138.095337
v -43.822567 88.885223 138.095337
v -43.822567 88.885223 143.397186
v -54.778202 88.885223 143.397186
v 43.822563 98.885231 143.397186
v 54.778202 98.885231 143.397186
v 54.778202 98.885231 138.095337
v 43.822563 98.885231 138.095337
v -54.778202 98.885231 138.095337
v -54.778202 98.885231 143.397186
v -43.822567 98.885231 143.397186
v -43.822567 98.885231 138.095337
v -219.907059 -2.240677 167.509399
v 168.826401 -2.240677 167.509399
v -219.907059 285.263855 167.509399
v 168.826401 285.263855 167.509399
v -219.907059 285.263855 143.397095
v 168.826401 285.263855 143.397095
v -219.907059 -2.240677 143.397095
v 168.826401 -2.240677 143.397095
v -43.822578 188.884125 143.397095
v 43.822556 188.884125 143.397095
v 43.822556 98.886360 143.397095
v -43.822578 98.886360 143.397095
v -43.822578 188.884125 163.612854
v 43.822556 188.884125 163.612854
v 43.822556 98.886360 163.612854
v -43.822578 98.886360 163.612854
v -84.910126 147.475616 143.397186
v -71.859604 147.475616 143.397186
v -84.910126 160.526154 143.397186
v -71.859604 160.526154 143.397186
v -84.910126 160.526154 142.907837
v -71.859604 160.526154 142.907837
v -84.910126 147.475616 142.907837
v -71.859604 147.475616 142.907837
vt 0.375000 0.000000
vt 0.625000 0.000000
vt 0.375000 0.250000
vt 0.625000 0.250000
vt 0.375000 0.500000
vt 0.625000 0.500000
vt 0.375000 0.750000
vt 0.625000 0.750000
vt 0.375000 1.000000
vt 0.625000 1.000000
vt 0.875000 0.000000
vt 0.875000 0.250000
vt 0.125000 0.000000
vt 0.125000 0.250000
vt 0.600000 1.000000
vt 0.600000 0.750000
vt 0.600000 0.500000
vt 0.600000 0.250000
vt 0.400000 1.000000
vt 0.400000 0.750000
vt 0.400000 0.500000
vt 0.400000 0.250000
vt 0.600000 0.750000
vt 0.600000 0.500000
vt 0.625000 0.500000
vt 0.625000 0.750000
vt 0.375000 0.500000
vt 0.400000 0.500000
vt 0.400000 0.750000
vt 0.375000 0.750000
vt 0.600068 0.999993
vt 0.600076 0.750006
vt 0.625000 0.750000
vt 0.625000 1.000000
vt 0.375000 0.750000
vt 0.400000 0.750000
vt 0.400000 1.000000
vt 0.375000 1.000000
vt 0.600044 0.999996
vt 0.625000 1.000000
vt 0.625000 0.750000
vt 0.600047 0.750003
vt 0.375000 0.750000
vt 0.375000 1.000000
vt 0.400000 1.000000
vt 0.400000 0.750000
vt 0.400000 0.750007
vt 0.400000 0.999994
vt 0.400000 0.999992
vt 0.400000 0.750008
vt 0.375000 0.250000
vt 0.625000 0.250000
vt 0.625000 0.500000
vt 0.375000 0.500000
vt 0.375000 0.750000
vt 0.625000 0.750000
vt 0.625000 0.500000
vt 0.375000 0.500000
vt 0.875000 0.000000
vt 0.875000 0.250000
vt 0.125000 0.000000
vt 0.125000 0.250000
vt 0.625000 0.500000
vt 0.375000 0.500000
vt 0.625000 0.750000
vt 0.375000 0.750000
vt 0.625000 0.500000
vt 0.375000 0.500000
vt 0.625000 0.750000
vt 0.375000 0.750000
vt 0.375000 0.250000
vt 0.625000 0.250000
vt 0.625000 0.500000
vt 0.375000 0.500000
vt 0.625000 0.750000
vt 0.375000 0.750000
vt 0.625000 1.000000
vt 0.375000 1.000000
vt 0.625000 0.000000
vt 0.875000 0.000000
vt 0.875000 0.250000
vt 0.125000 0.000000
vt 0.375000 0.000000
vt 0.125000 0.250000
vn 0.000000 1.000000 0.000000
vn 0.000000 1.000000 0.000000
vn 0.000000 1.000000 0.000000
vn 0.000000 1.000000 0.000000
vn 0.000000 0.000000 -1.000000
vn 0.000000 0.000000 -1.000000
vn 0.000000 0.000000 -1.000000
vn 0.000000 0.000000 -1.000000
vn 0.000000 -1.000000 0.000000
vn 0.000000 -1.000000 0.000000
vn 0.000000 -1.000000 0.000000
vn 0.000000 -1.000000 0.000000
vn 1.000000 0.000000 0.000000
vn 1.000000 0.000000 0.000000
vn 1.000000 0.000000 0.000000
vn 1.000000 0.000000 0.000000
vn -1.000000 0.000000 0.000000
vn -1.000000 0.000000 0.000000
vn -1.000000 0.000000 0.000000
vn -1.000000 0.000000 0.000000
vn 0.000000 -1.000000 0.000000
vn 0.000000 -1.000000 0.000000
vn 0.000000 -1.000000 0.000000
vn 0.000000 -1.000000 0.000000
vn 0.000000 0.000000 -1.000000
vn 0.000000 0.000000 -1.000000
vn 0.000000 0.000000 -1.000000
vn 0.000000 0.000000 -1.000000
vn 0.000000 1.000000 0.000000
vn 0.000000 1.000000 0.000000
vn 0.000000 -1.000000 0.000000
vn 0.000000 -1.000000 0.000000
vn 0.000000 -1.000000 0.000000
vn 0.000000 -1.000000 0.000000
vn 0.000000 0.000000 -1.000000
vn 0.000000 0.000000 -1.000000
vn 0.000000 0.000000 -1.000000
vn 0.000000 0.000000 -1.000000
vn 0.000000 1.000000 0.000000
vn 0.000000 1.000000 0.000000
vn -1.000000 0.000000 -0.000002
vn -1.000000 0.000000 -0.000002
vn -1.000000 0.000000 -0.000002
vn -1.000000 0.000000 -0.000002
vn 0.000000 1.000000 0.000002
vn 0.000000 1.000000 0.000002
vn 0.000000 1.000000 0.000002
vn 0.000000 1.000000 0.000002
vn 1.000000 0.000000 0.000005
vn 1.000000 0.000000 0.000005
vn 1.000000 0.000000 0.000005
vn 1.000000 0.000000 0.000005
vn 0.000000 -1.000000 -0.000001
vn 0.000000 -1.000000 -0.000001
vn 0.000000 -1.000000 -0.000001
vn 0.000000 -1.000000 -0.000001
vn 0.000000 1.000000 0.000000
vn 0.000000 1.000000 0.000000
vn 0.000000 1.000000 0.000000
vn 0.000000 1.000000 0.000000
vn 1.000000 0.000000 0.000000
vn 1.000000 0.000000 0.000000
vn 1.000000 0.000000 0.000000
vn 1.000000 0.000000 0.000000
vn 0.000000 -1.000000 0.000000
vn 0.000000 -1.000000 0.000000
vn 0.000000 -1.000000 0.000000
vn 0.000000 -1.000000 0.000000
vn -1.000000 0.000000 0.000000
vn -1.000000 0.000000 0.000000
vn -1.000000 0.000000 0.000000
vn -1.000000 0.000000 0.000000
vn -1.000000 0.000000 0.000000
vn -1.000000 0.000000 0.000000
vn -1.000000 0.000000 0.000000
vn -1.000000 0.000000 0.000000
vn 0.000000 0.000000 -1.000000
vn 0.000000 0.000000 -1.000000
vn 0.000000 0.000000 -1.000000
vn 0.000000 0.000000 -1.000000
vn 1.000000 0.000000 0.000000
vn 1.000000 0.000000 0.000000
vn 0.000000 0.000000 1.000000
vn 0.000000 0.000000 1.000000
vn 0.000000 0.000000 1.000000
vn 0.000000 0.000000 1.000000
vn 0.000000 0.000000 -1.000000
vn 0.000000 0.000000 -1.000000
vn 0.000000 0.000000 -1.000000
vn 0.000000 0.000000 -1.000000
vn 1.000000 -0.000000 0.000000
vn 1.000000 -0.000000 0.000000
vn 1.000000 -0.000000 0.000000
vn 1.000000 -0.000000 0.000000
vn 0.000000 0.000000 1.000000
vn 0.000000 0.000000 1.000000
vn 0.000000 0.000000 1.000000
vn 0.000000 0.000000 1.000000
vn -1.000000 0.000000 0.000000
vn -1.000000 0.000000 0.000000
vn 0.000000 0.000000 1.000000
vn 0.000000 0.000000 1.000000
vn 1.000000 0.000000 0.000000
vn 1.000000 0.000000 0.000000
vn 0.000000 0.000000 -1.000000
vn 0.000000 0.000000 -1.000000
vn -1.000000 0.000000 0.000000
vn -1.000000 0.000000 0.000000
vn 0.000000 0.000000 1.000000
vn 0.000000 0.000000 1.000000
vn 0.000000 0.000000 -1.000000
vn 0.000000 0.000000 -1.000000
vn 0.000000 1.000000 0.000000
vn 0.000000 1.000000 0.000000
vn 0.000000 1.000000 0.000000
vn 0.000000 1.000000 0.000000
vn 0.000000 0.000000 1.000000
vn 0.000000 0.000000 1.000000
vn 0.000000 0.000000 1.000000
vn 0.000000 0.000000 1.000000
vn 0.000000 -1.000000 0.000000
vn 0.000000 -1.000000 0.000000
vn 0.000000 -1.000000 0.000000
vn 0.000000 -1.000000 0.000000
vn 0.000000 0.000000 -1.000000
vn 0.000000 0.000000 -1.000000
vn 0.000000 0.000000 -1.000000
vn 0.000000 0.000000 -1.000000
vn 0.000000 1.000000 0.000000
vn 0.000000 1.000000 0.000000
vn 0.000000 1.000000 0.000000
vn 0.000000 1.000000 0.000000
vn 0.000000 -1.000000 0.000000
vn 0.000000 -1.000000 0.000000
vn 0.000000 -1.000000 0.000000
vn 0.000000 -1.000000 0.000000
vn 1.000000 0.000000 0.000000
vn 1.000000 0.000000 0.000000
vn 1.000000 0.000000 0.000000
vn 1.000000 0.000000 0.000000
vn -1.000000 0.000000 0.000000
vn -1.000000 0.000000 0.000000
vn -1.000000 0.000000 0.000000
vn -1.000000 0.000000 0.000000
vn 0.000000 0.000000 -1.000000
vn -0.000000 0.000000 -1.000000
vn -0.000000 0.000000 -1.000000
vn 0.000000 0.000000 -1.000000
vn -0.000000 0.000000 -1.000000
vn -0.000000 0.000000 -1.000000
vn 0.000000 0.000000 -1.000000
vn 0.000000 0.000000 -1.000000
vn 0.000000 -1.000000 0.000000
vn 0.000000 -1.000000 0.000000
vn 0.000000 -1.000000 0.000000
vn 0.000000 -1.000000 0.000000
vn -1.000000 0.000000 0.000000
vn -1.000000 0.000000 0.000000
vn -1.000000 0.000000 0.000000
vn -1.000000 0.000000 0.000000
vn 0.000000 1.000000 0.000000
vn 0.000000 1.000000 0.000000
vn 0.000000 1.000000 0.000000
vn 0.000000 1.000000 0.000000
vn 1.000000 0.000000 0.000000
vn 1.000000 0.000000 0.000000
vn 1.000000 0.000000 0.000000
vn 1.000000 0.000000 0.000000
vn 0.000000 -0.040396 0.999184
vn 0.000000 -0.040396 0.999184
vn 0.000000 -0.040396 0.999184
vn 0.000000 -0.040396 0.999184
vn 0.022123 0.000000 0.999755
vn 0.022123 0.000000 0.999755
vn 0.022123 0.000000 0.999755
vn 0.022123 0.000000 0.999755
vn 0.000000 0.038503 0.999259
vn 0.000000 0.038503 0.999259
vn 0.000000 0.038503 0.999259
vn 0.000000 0.038503 0.999259
vn -0.031156 0.000000 0.999515
vn -0.031156 0.000000 0.999515
vn -0.031156 0.000000 0.999515
vn -0.031156 0.000000 0.999515
vn 0.000000 1.000000 0.000000
vn 0.000000 1.000000 0.000000
vn 0.000000 1.000000 0.000000
vn 0.000000 1.000000 0.000000
vn 0.000000 0.000000 -1.000000
vn 0.000000 0.000000 -1.000000
vn 0.000000 0.000000 -1.000000
vn 0.000000 0.000000 -1.000000
vn 0.000000 -1.000000 0.000000
vn 0.000000 -1.000000 0.000000
vn 0.000000 -1.000000 0.000000
vn 0.000000 -1.000000 0.000000
vn 1.000000 0.000000 0.000000
vn 1.000000 0.000000 0.000000
vn 1.000000 0.000000 0.000000
vn 1.000000 0.000000 0.000000
vn -1.000000 0.000000 0.000000
vn -1.000000 0.000000 0.000000
vn -1.000000 0.000000 0.000000
vn -1.000000 0.000000 0.000000
s 1
g FarWall2
usemtl initialShadingGroup
f 11/17/1 12/18/2 4/4/3 6/6/4
s off
f 17/23/5 18/24/6 19/25/7 20/26/8
f 25/31/9 26/32/10 27/33/11 28/34/12
s 2
f 2/2/13 8/11/14 6/12/15 4/4/16
s 3
f 7/13/17 1/1/18 3/3/19 5/14/20
s off
f 10/16/21 9/15/22 13/19/23 14/20/24
f 11/17/25 10/16/26 14/20/27 15/21/28
s 1
f 16/22/29 12/18/2 11/17/1 15/21/30
s off
f 29/35/31 30/36/32 31/37/33 32/38/34
f 21/27/35 22/28/36 23/29/37 24/30/38
s 1
f 3/3/39 16/22/29 15/21/30 5/5/40
s off
f 10/16/41 11/17/42 18/24/43 17/23/44
f 11/17/45 6/6/46 19/25/47 18/24/48
f 6/6/49 8/8/50 20/26/51 19/25/52
f 8/8/53 10/16/54 17/23/55 20/26/56
f 5/5/57 15/21/58 22/28/59 21/27/60
f 15/21/61 14/20/62 23/29/63 22/28/64
f 14/20/65 7/7/66 24/30/67 23/29/68
f 7/7/69 5/5/70 21/27/71 24/30/72
f 9/15/73 10/16/74 36/42/75 33/39/76
s 4
f 10/16/77 8/8/78 35/41/79 36/42/80
s 2
f 8/8/14 2/10/13 34/40/81 35/41/82
s 5
f 2/10/83 9/15/84 33/39/85 34/40/86
s 6
f 7/7/87 14/20/88 40/46/89 37/43/90
s off
f 14/20/91 13/19/92 39/45/93 40/46/94
s 7
f 13/19/95 1/9/96 38/44/97 39/45/98
s 3
f 1/9/18 7/7/17 37/43/99 38/44/100
s 5
f 34/40/86 33/39/85 25/31/101 28/34/102
s 2
f 35/41/82 34/40/81 28/34/103 27/33/104
s 4
f 36/42/80 35/41/79 27/33/105 26/32/106
s 3
f 38/44/100 37/43/99 29/35/107 32/38/108
s 7
f 39/45/98 38/44/97 32/38/109 31/37/110
s 6
f 37/43/90 40/46/89 30/36/111 29/35/112
s off
f 40/46/113 39/45/114 33/48/115 36/47/116
f 39/45/117 31/37/118 25/49/119 33/48/120
f 31/37/121 30/36/122 26/50/123 25/49/124
f 30/36/125 40/46/126 36/47/127 26/50/128
usemtl lambert4SG
f 43/51/129 44/52/130 46/53/131 45/54/132
f 47/55/133 48/56/134 42/57/135 41/58/136
f 42/57/137 48/59/138 46/60/139 44/52/140
f 47/61/141 41/58/142 43/51/143 45/62/144
s 8
f 45/54/145 46/53/146 50/63/147 49/64/148
f 46/53/146 48/56/149 51/65/150 50/63/147
f 48/56/149 47/55/151 52/66/152 51/65/150
f 47/55/151 45/54/145 49/64/148 52/66/152
s off
f 49/64/153 50/63/154 54/67/155 53/68/156
f 50/63/157 51/65/158 55/69/159 54/67/160
f 51/65/161 52/66/162 56/70/163 55/69/164
f 52/66/165 49/64/166 53/68/167 56/70/168
f 44/52/169 43/51/170 53/68/171 54/67/172
f 43/51/173 41/58/174 56/70/175 53/68/176
f 41/58/177 42/57/178 55/69/179 56/70/180
f 42/57/181 44/52/182 54/67/183 55/69/184
usemtl initialShadingGroup
f 59/71/185 60/72/186 62/73/187 61/74/188
f 61/74/189 62/73/190 64/75/191 63/76/192
f 63/76/193 64/75/194 58/77/195 57/78/196
f 58/79/197 64/80/198 62/81/199 60/72/200
f 63/82/201 57/83/202 59/71/203 61/84/204
