# This file uses centimeters as units for non-parametric coordinates.

mtllib Wall_R.mtl
g default
v -219.907059 -1.530487 143.397186
v -143.397186 -1.530487 143.397186
v -219.907059 285.263855 143.397186
v -143.397186 285.263855 143.397186
v -219.907059 285.263855 -143.397186
v -143.397186 285.263855 -143.397186
v -219.907059 -1.530487 -143.397186
v -143.397186 -1.530487 -143.397186
v -143.397186 113.187263 -3.584927
v -143.397186 113.187271 71.698601
v -143.397186 199.225555 71.698601
v -143.397186 199.225555 -3.584925
v -214.086609 113.187271 71.698601
v -214.086609 199.225555 71.698601
v -214.086609 113.187263 -3.584927
v -214.086609 199.225555 -3.584925
v -194.919235 117.332970 65.073318
v -142.094589 117.332970 65.073318
v -194.919235 117.332970 3.041801
v -142.094589 117.332970 3.041801
v -142.094589 105.253540 65.073318
v -142.094589 105.253540 3.041801
vt 0.375000 0.000000
vt 0.625026 0.000018
vt 0.375000 0.250000
vt 0.632272 0.242733
vt 0.375000 0.500000
vt 0.625501 0.499468
vt 0.375000 0.750000
vt 0.625002 0.749955
vt 0.375000 1.000000
vt 0.624982 0.999986
vt 0.875041 -0.000004
vt 0.874200 0.250696
vt 0.125000 0.000000
vt 0.125000 0.250000
vt 0.753125 0.100000
vt 0.687500 0.100000
vt 0.687500 0.175000
vt 0.753125 0.175000
vt 0.000000 0.000000
vt 1.000000 0.000000
vt 0.500000 1.000000
vt 0.500000 1.000000
vt 0.000000 0.000000
vt 1.000000 0.000000
vt 0.500000 1.000000
vt 0.000000 0.000000
vt 1.000000 0.000000
vt 0.500000 1.000000
vt 0.000000 0.000000
vt 1.000000 0.000000
vt 0.000000 0.000000
vt 1.000000 0.000000
vt 1.000000 1.000000
vt 0.000000 1.000000
vt 0.000000 0.000000
vt 1.000000 0.000000
vt 1.000000 1.000000
vt 0.000000 1.000000
vn 1.000000 0.000000 0.000000
vn 1.000000 -0.000000 0.000000
vn 1.000000 -0.000000 0.000000
vn 1.000000 0.000000 0.000000
vn 0.000000 -1.000000 0.000000
vn 0.000000 -1.000000 0.000000
vn 0.000000 -1.000000 0.000000
vn 0.000000 -1.000000 0.000000
vn 0.000000 1.000000 0.000000
vn 0.000000 1.000000 0.000000
vn 0.000000 1.000000 0.000000
vn 0.000000 1.000000 0.000000
vn 1.000000 -0.000000 0.000000
vn 1.000000 -0.000000 0.000000
vn -1.000000 0.000000 0.000000
vn -1.000000 0.000000 0.000000
vn -1.000000 0.000000 0.000000
vn -1.000000 0.000000 0.000000
vn 0.000000 0.000000 -1.000000
vn 0.000000 0.000000 -1.000000
vn 0.000000 0.000000 -1.000000
vn 0.000000 0.000000 -1.000000
vn 1.000000 0.000000 0.000000
vn 1.000000 0.000000 0.000000
vn 0.000000 0.000000 1.000000
vn 0.000000 0.000000 1.000000
vn 0.000000 0.000000 1.000000
vn 0.000000 0.000000 1.000000
vn 0.000000 0.000000 -1.000000
vn 0.000000 0.000000 -1.000000
vn 0.000000 0.000000 -1.000000
vn 0.000000 0.000000 -1.000000
vn 0.000000 1.000000 -0.000000
vn 0.000000 1.000000 -0.000000
vn 0.000000 1.000000 -0.000000
vn 0.000000 1.000000 -0.000000
vn 0.000000 -0.000000 1.000000
vn 0.000000 -0.000000 1.000000
vn 0.000000 -0.000000 1.000000
vn 0.000000 -0.000000 1.000000
vn 0.000000 -1.000000 0.000000
vn 0.000000 -1.000000 0.000000
vn 0.000000 -1.000000 0.000000
vn 0.000000 -1.000000 0.000000
vn 1.000000 0.000000 0.000000
vn 1.000000 0.000000 0.000000
vn 1.000000 0.000000 0.000000
vn 1.000000 0.000000 0.000000
vn 0.000000 1.000000 0.000000
vn 0.000000 1.000000 0.000000
vn 0.000000 1.000000 0.000000
vn 0.000000 1.000000 0.000000
vn 1.000000 0.000000 0.000000
vn 1.000000 0.000000 0.000000
vn 1.000000 0.000000 0.000000
vn 1.000000 0.000000 0.000000
s 1
g Wall_R1
usemtl lambert4SG
f 4/4/1 2/2/2 10/16/3 11/17/4
s off
f 1/9/5 7/7/6 8/8/7 2/10/8
f 6/6/9 5/5/10 3/3/11 4/4/12
s 1
f 9/15/13 10/16/3 2/2/2 8/11/14
s off
f 3/3/15 5/14/16 7/13/17 1/1/18
f 7/7/19 5/5/20 6/6/21 8/8/22
s 1
f 4/4/1 11/17/4 12/18/23 6/12/24
s off
f 4/4/25 3/3/26 1/1/27 2/2/28
s 1
f 6/12/24 12/18/23 9/15/13 8/11/14
s off
usemtl initialShadingGroup
f 11/19/29 10/20/30 13/21/31 14/22/32
f 10/23/33 9/24/34 15/25/35 13/21/36
f 9/26/37 12/27/38 16/28/39 15/25/40
f 12/29/41 11/30/42 14/22/43 16/28/44
f 14/22/45 13/21/46 15/25/47 16/28/48
usemtl lambert3SG
f 17/31/49 18/32/50 20/33/51 19/34/52
f 20/35/53 18/36/54 21/37/55 22/38/56
